<?xml version="1.0" encoding="UTF-8" standalone="no"?>
<svg
   version="1.1"
   viewBox="-5 -10 110 110"
   id="svg19"
   sodipodi:docname="remote-black.svg"
   width="110"
   height="110"
   inkscape:version="1.4.3 (0d15f75, 2025-12-25)"
   xmlns:inkscape="http://www.inkscape.org/namespaces/inkscape"
   xmlns:sodipodi="http://sodipodi.sourceforge.net/DTD/sodipodi-0.dtd"
   xmlns="http://www.w3.org/2000/svg"
   xmlns:svg="http://www.w3.org/2000/svg">
  <defs
     id="defs19" />
  <sodipodi:namedview
     id="namedview19"
     pagecolor="#505050"
     bordercolor="#eeeeee"
     borderopacity="1"
     inkscape:showpageshadow="0"
     inkscape:pageopacity="0"
     inkscape:pagecheckerboard="0"
     inkscape:deskcolor="#505050"
     inkscape:zoom="8.6444444"
     inkscape:cx="54.948586"
     inkscape:cy="68.194087"
     inkscape:window-width="3440"
     inkscape:window-height="1369"
     inkscape:window-x="2872"
     inkscape:window-y="-8"
     inkscape:window-maximized="1"
     inkscape:current-layer="svg19" />
  <g
     id="g19"
     transform="translate(4e-4,-4.99957)">
    <path
       d="m 50,99.023 c -5.875,-0.0078 -11.512,-2.3438 -15.664,-6.5 -4.1562,-4.1562 -6.4922,-9.7891 -6.5,-15.664 v -8.5352 c 0,-0.64844 0.52344,-1.1719 1.1719,-1.1719 0.64844,0 1.1719,0.52344 1.1719,1.1719 v 8.5352 c 0,7.082 3.7773,13.625 9.9141,17.168 6.1328,3.5391 13.688,3.5391 19.82,0 6.1367,-3.543 9.9141,-10.086 9.9141,-17.168 V 32.797 c -0.0039,-4.2266 -3.4258,-7.6484 -7.6484,-7.6523 h -24.352 c -4.2227,0.0039 -7.6445,3.4258 -7.6484,7.6523 V 59.18 c 0,0.64844 -0.52344,1.1719 -1.1719,1.1719 -0.64844,0 -1.1719,-0.52344 -1.1719,-1.1719 V 32.797 c 0.0039,-5.5195 4.4766,-9.9922 9.9922,-9.9961 h 24.344 c 5.5156,0.0078 9.9883,4.4766 9.9922,9.9961 v 44.062 c -0.0039,5.875 -2.3438,11.508 -6.4961,15.664 -4.1562,4.1562 -9.793,6.4922 -15.668,6.5 z"
       id="path1" />
    <path
       d="m 29.008,65.805 c -0.64844,0 -1.1719,-0.52344 -1.1719,-1.1719 v -1.7578 c 0,-0.64844 0.52344,-1.1719 1.1719,-1.1719 0.64844,0 1.1719,0.52344 1.1719,1.1719 v 1.7578 c 0,0.64844 -0.52344,1.1719 -1.1719,1.1719 z"
       id="path2" />
    <path
       d="m 40.148,51.414 h -3.3828 c -1.7461,0 -3.1602,-1.4141 -3.1641,-3.1602 v -3.3789 c 0.0039,-1.7461 1.418,-3.1641 3.1641,-3.1641 h 3.3828 c 1.7422,0.0039 3.1562,1.418 3.1562,3.1641 v 3.3789 c 0,1.7461 -1.4141,3.1562 -3.1562,3.1602 z m -3.3789,-7.3594 h -0.0039 c -0.45312,0 -0.81641,0.36719 -0.82031,0.82031 v 3.3789 c 0.0039,0.45312 0.36719,0.81641 0.82031,0.81641 h 3.3828 c 0.44922,0 0.8125,-0.36719 0.8125,-0.81641 v -3.3789 C 40.9644,44.42179 40.59722,44.0546 40.148,44.0546 Z"
       id="path3" />
    <path
       d="M 51.691,51.414 H 48.3082 C 46.5621,51.4101 45.152,49.9999 45.148,48.2538 v -3.3789 c 0,-1.7461 1.4141,-3.1602 3.1602,-3.1641 h 3.3828 c 1.7461,0.0039 3.1602,1.418 3.1602,3.1641 v 3.3789 C 54.8473,49.9999 53.4371,51.41 51.691,51.414 Z m -3.3828,-7.3594 c -0.45312,0 -0.81641,0.36719 -0.81641,0.82031 v 3.3789 c 0,0.44922 0.36719,0.81641 0.81641,0.81641 h 3.3828 c 0.44922,0 0.81641,-0.36719 0.81641,-0.81641 v -3.3789 c 0,-0.45312 -0.36328,-0.82031 -0.81641,-0.82031 z"
       id="path4" />
    <path
       d="M 63.234,51.414 H 59.8512 C 58.109,51.410094 56.695,49.9999 56.695,48.2538 v -3.3789 c 0,-1.7461 1.4141,-3.1602 3.1562,-3.1641 h 3.3828 c 0.83984,-0.0039 1.6484,0.33203 2.2422,0.92187 0.59375,0.59375 0.92969,1.3984 0.92969,2.2422 v 3.3789 c 0,0.83984 -0.33594,1.6445 -0.92969,2.2383 -0.59766,0.59375 -1.4023,0.92578 -2.2422,0.92187 z m -3.3789,-7.3594 h -0.0039 c -0.44922,0 -0.81641,0.36719 -0.8125,0.82031 v 3.3789 c 0,0.44922 0.36328,0.81641 0.8125,0.81641 h 3.3828 c 0.45312,0 0.81641,-0.36328 0.82031,-0.81641 v -3.3789 C 64.05041,44.42179 63.68712,44.0546 63.234,44.0546 Z"
       id="path5" />
    <path
       d="M 40.148,62.961 H 36.7652 C 35.0191,62.9571 33.605,61.543 33.6011,59.8008 V 56.418 c 0.0039,-1.7461 1.418,-3.1602 3.1641,-3.1602 h 3.3828 c 1.7422,0 3.1562,1.4141 3.1562,3.1602 v 3.3789 c 0,1.7461 -1.4141,3.1602 -3.1562,3.1641 z m -3.3789,-7.3594 h -0.0039 c -0.45312,0 -0.81641,0.36328 -0.82031,0.81641 v 3.3789 c 0.0039,0.45312 0.36719,0.82031 0.82031,0.82031 h 3.3828 c 0.44922,-0.0039 0.8125,-0.36719 0.8125,-0.81641 v -3.3828 C 40.9644,55.96489 40.59722,55.6016 40.148,55.6016 Z"
       id="path6" />
    <path
       d="M 51.691,62.961 H 48.3082 C 46.5621,62.957093 45.152,61.543 45.148,59.8008 V 56.418 c 0,-1.7461 1.4141,-3.1602 3.1602,-3.1602 h 3.3828 c 1.7461,0 3.1602,1.4141 3.1602,3.1602 v 3.3789 c -0.0039,1.7461 -1.4141,3.1602 -3.1602,3.1641 z m -3.3828,-7.3594 c -0.45312,0 -0.81641,0.36328 -0.81641,0.81641 v 3.3789 c 0,0.45312 0.36719,0.81641 0.81641,0.82031 h 3.3828 c 0.44922,-0.0039 0.81641,-0.36719 0.81641,-0.81641 v -3.3828 c 0,-0.45312 -0.36328,-0.81641 -0.81641,-0.81641 z"
       id="path7" />
    <path
       d="M 63.234,62.961 H 59.8512 C 58.109,62.957093 56.695,61.543 56.695,59.8008 V 56.418 c 0,-1.7461 1.4141,-3.1602 3.1562,-3.1602 h 3.3828 c 0.83984,-0.0039 1.6484,0.32813 2.2422,0.92188 0.5938,0.59375 0.92969,1.3984 0.92969,2.2383 v 3.3789 c 0,0.83984 -0.33594,1.6484 -0.92969,2.2383 -0.59766,0.59375 -1.4023,0.92578 -2.2422,0.92578 z m -3.3789,-7.3594 h -0.0039 c -0.44922,0 -0.81641,0.36328 -0.8125,0.81641 v 3.3789 c 0,0.45312 0.36328,0.81641 0.8125,0.82031 h 3.3828 c 0.45312,0 0.81641,-0.36719 0.82031,-0.81641 v -3.3828 C 64.05041,55.96489 63.68712,55.6016 63.234,55.6016 Z"
       id="path8" />
    <path
       d="m 40.148,74.504 h -3.3828 c -1.7461,0 -3.1602,-1.4141 -3.1641,-3.1602 v -3.375 c 0.0039,-1.7461 1.418,-3.1602 3.1641,-3.1602 h 3.3828 c 1.7422,0.0039 3.1562,1.4141 3.1562,3.1602 v 3.3828 c -0.0039,1.7422 -1.418,3.1484 -3.1562,3.1523 z m -3.3789,-7.3594 h -0.0039 c -0.45312,0 -0.81641,0.36328 -0.82031,0.81641 v 3.3828 c 0.0039,0.45312 0.36719,0.81641 0.82031,0.81641 h 3.3828 c 0.44922,0 0.8125,-0.36719 0.8125,-0.81641 v -3.375 c 0,-0.44922 -0.36328,-0.81641 -0.8125,-0.81641 z"
       id="path9" />
    <path
       d="M 51.691,74.504 H 48.3082 C 46.5621,74.5001 45.152,73.0899 45.148,71.3438 v -3.375 c 0.0039,-1.7461 1.4141,-3.1562 3.1602,-3.1602 h 3.3828 c 1.7461,0.0039 3.1562,1.4141 3.1602,3.1602 v 3.3828 c -0.0078,1.7422 -1.418,3.1484 -3.1602,3.1523 z m -3.3828,-7.3594 c -0.44922,0 -0.81641,0.36719 -0.81641,0.81641 v 3.3828 c 0,0.44922 0.36719,0.81641 0.81641,0.81641 h 3.3828 c 0.44922,0 0.81641,-0.36719 0.81641,-0.81641 v -3.375 c 0,-0.44922 -0.36719,-0.81641 -0.81641,-0.81641 z"
       id="path10" />
    <path
       d="M 63.234,74.504 H 59.8512 C 58.109,74.500094 56.695,73.0899 56.695,71.3438 v -3.375 c 0,-1.7461 1.4141,-3.1562 3.1562,-3.1602 h 3.3828 c 0.83984,-0.0039 1.6445,0.32812 2.2422,0.92188 0.59375,0.59375 0.92969,1.3984 0.92969,2.2383 v 3.3828 c -0.0078,1.7461 -1.4258,3.1562 -3.1719,3.1523 z m -3.3789,-7.3594 h -0.0039 c -0.44922,0 -0.8125,0.36719 -0.8125,0.81641 v 3.3828 c 0,0.44922 0.36328,0.81641 0.8125,0.81641 h 3.3828 c 0.45312,0 0.81641,-0.36328 0.82031,-0.81641 v -3.375 C 64.05041,67.51569 63.68712,67.1524 63.234,67.1524 Z"
       id="path11" />
    <path
       d="m 39.504,38.367 c -2.0938,0 -3.9805,-1.2617 -4.7852,-3.1992 -0.80078,-1.9336 -0.35547,-4.1602 1.125,-5.6406 1.4805,-1.4805 3.707,-1.9258 5.6406,-1.125 1.9375,0.80469 3.1953,2.6914 3.1953,4.7852 -0.0039,2.8594 -2.3164,5.1719 -5.1758,5.1797 z m 0,-8.0078 c -1.1445,0 -2.1797,0.6875 -2.6172,1.7461 -0.44141,1.0586 -0.19531,2.2812 0.61328,3.0898 0.80859,0.80859 2.0312,1.0547 3.0898,0.61328 1.0586,-0.4375 1.7461,-1.4727 1.7461,-2.6172 0.0039,-1.5664 -1.2656,-2.8359 -2.832,-2.8398 z"
       id="path12" />
    <path
       d="m 60.496,38.367 c -2.0938,-0.0039 -3.9805,-1.2656 -4.7812,-3.1992 -0.80078,-1.9336 -0.35938,-4.1602 1.1211,-5.6406 1.4844,-1.4805 3.7109,-1.9258 5.6445,-1.125 1.9336,0.80469 3.1953,2.6914 3.1953,4.7852 -0.0039,2.8594 -2.3203,5.1758 -5.1797,5.1797 z m 0,-8.0078 c -1.1445,0 -2.1797,0.69141 -2.6172,1.75 -0.4375,1.05859 -0.19531,2.2773 0.61719,3.0859 0.80859,0.8125 2.0273,1.0547 3.0859,0.61328 1.0586,-0.4375 1.75,-1.4727 1.75,-2.6172 0,-1.5664 -1.2695,-2.8359 -2.8359,-2.8398 z"
       id="path13" />
    <path
       d="m 50,93.574 c -2.1328,-0.0039 -3.8594,-1.7305 -3.8594,-3.8633 v -1.3008 h -1.3047 v 0.0039 c -2.1328,0 -3.8594,-1.7305 -3.8594,-3.8633 0,-2.1328 1.7266,-3.8633 3.8594,-3.8633 h 1.3047 v -1.3047 0.0039 c 0,-2.1328 1.7266,-3.8633 3.8594,-3.8633 2.1328,0 3.8594,1.7305 3.8594,3.8633 v 1.3047 h 1.3047 v -0.0039 c 2.1328,0 3.8594,1.7305 3.8594,3.8633 0,2.1328 -1.7266,3.8633 -3.8594,3.8633 h -1.3047 v 1.3008 c 0,2.1289 -1.7266,3.8555 -3.8594,3.8594 z M 44.8359,83.027 c -0.83984,0 -1.5156,0.67969 -1.5156,1.5195 0,0.83594 0.67578,1.5156 1.5156,1.5156 h 2.4766 c 0.64453,0 1.1719,0.52344 1.1719,1.1719 v 2.4727 c 0,0.83984 0.67578,1.5195 1.5156,1.5195 0.83982,0 1.5156,-0.67969 1.5156,-1.5195 v -2.4648 c 0,-0.64844 0.52734,-1.1719 1.1719,-1.1719 h 2.4766 c 0.83984,0 1.5156,-0.67969 1.5156,-1.5195 0,-0.83984 -0.67578,-1.5195 -1.5156,-1.5195 h -2.4766 c -0.64453,0 -1.1719,-0.52344 -1.1719,-1.1719 v -2.4727 c 0,-0.83984 -0.67578,-1.5195 -1.5156,-1.5195 -0.83982,0 -1.5156,0.67969 -1.5156,1.5195 v 2.4766 -0.0039 c 0,0.64844 -0.52734,1.1719 -1.1719,1.1719 z"
       id="path14" />
    <path
       d="m 61.004,10.648 c -0.53906,0.0039 -1.0078,-0.36328 -1.1406,-0.88281 -0.90234,-3.7383 -5.0547,-6.4453 -9.8633,-6.4453 -4.8086,0 -8.9609,2.707 -9.8672,6.4453 -0.16016,0.62109 -0.78516,0.99609 -1.4102,0.84375 -0.62109,-0.14844 -1.0078,-0.77344 -0.86328,-1.3984 1.1562,-4.7734 6.2656,-8.2344 12.141,-8.2344 5.8789,0 10.984,3.4609 12.141,8.2266 0.15234,0.62891 -0.23047,1.2617 -0.85938,1.4141 -0.08984,0.02344 -0.18359,0.03516 -0.27734,0.03125 z"
       id="path15" />
    <path
       d="m 56.352,13.176 c -0.54687,0 -1.0195,-0.375 -1.1406,-0.90625 -0.47656,-2.0273 -2.6719,-3.5039 -5.2109,-3.5039 -2.539,0 -4.7344,1.4727 -5.2109,3.5 v 0.0039 c -0.0625,0.30859 -0.24609,0.58203 -0.51172,0.75391 -0.26953,0.17187 -0.59375,0.22656 -0.90234,0.15234 -0.30859,-0.07031 -0.57422,-0.26562 -0.73828,-0.53516 -0.16016,-0.27344 -0.20703,-0.59766 -0.12891,-0.90625 0.71875,-3.0781 3.8672,-5.3125 7.4922,-5.3125 3.6211,0 6.7734,2.2344 7.4922,5.3125 h -0.0039 c 0.14844,0.63281 -0.24219,1.2617 -0.87109,1.4102 -0.08594,0.01953 -0.17578,0.03125 -0.26953,0.03125 z"
       id="path16" />
    <path
       d="m 52.836,16.406 c -0.54297,0 -1.0117,-0.37109 -1.1406,-0.89844 -0.11719,-0.49609 -0.75391,-1.0234 -1.6953,-1.0234 -0.94139,0 -1.5781,0.52734 -1.6953,1.0234 -0.16016,0.62109 -0.78516,1 -1.4102,0.85156 -0.62504,-0.14844 -1.0117,-0.76953 -0.87109,-1.3945 0.39062,-1.6367 2.0625,-2.8242 3.9766,-2.8242 1.9141,0 3.5859,1.1875 3.9766,2.8242 v -0.0039 c 0.15234,0.63281 -0.23828,1.2617 -0.86719,1.4141 -0.08984,0.01953 -0.17969,0.03125 -0.27344,0.03125 z"
       id="path17" />
    <path
       d="m 50,19.336 c -0.07813,0 -0.15625,-0.0078 -0.23047,-0.02344 -0.07422,-0.01563 -0.14844,-0.03906 -0.21875,-0.06641 -0.06641,-0.03125 -0.13281,-0.06641 -0.19531,-0.10547 -0.13281,-0.08594 -0.24609,-0.19531 -0.33203,-0.32422 -0.04297,-0.0625 -0.07813,-0.125 -0.10938,-0.19531 -0.02734,-0.07031 -0.05078,-0.14453 -0.06641,-0.21875 -0.01563,-0.07813 -0.01953,-0.16016 -0.01953,-0.23828 0,-0.07812 0.0078,-0.15625 0.02344,-0.23047 0.01563,-0.07422 0.03906,-0.14844 0.06641,-0.21875 0.03125,-0.07031 0.06641,-0.13281 0.10938,-0.19531 0.04297,-0.0625 0.08984,-0.125 0.14453,-0.17969 0.05469,-0.05469 0.11328,-0.10156 0.17969,-0.14453 0.05859,-0.04297 0.125,-0.07812 0.19531,-0.10937 0.07031,-0.02734 0.14062,-0.05078 0.21875,-0.0625 0.34375,-0.07422 0.69922,0.01562 0.97266,0.23437 0.27344,0.22266 0.43359,0.55469 0.43359,0.90625 0,0.07813 -0.0078,0.15234 -0.02344,0.22656 -0.01172,0.07813 -0.03516,0.14844 -0.0625,0.21875 -0.03125,0.07031 -0.07031,0.13672 -0.10938,0.19531 -0.04297,0.06641 -0.09375,0.125 -0.14844,0.17969 C 50.61328,19.20709 50.3125,19.33599 50,19.33599 Z"
       id="path18" />
  </g>
</svg>
