<?xml version="1.0" encoding="UTF-8" standalone="no"?>
<svg
   id="admin"
   viewBox="0 0 32 32"
   fill="#ffffff"
   version="1.1"
   sodipodi:docname="bp-admin-interface-grey-32.svg"
   inkscape:version="1.4.2 (f4327f4, 2025-05-13)"
   xmlns:inkscape="http://www.inkscape.org/namespaces/inkscape"
   xmlns:sodipodi="http://sodipodi.sourceforge.net/DTD/sodipodi-0.dtd"
   xmlns="http://www.w3.org/2000/svg"
   xmlns:svg="http://www.w3.org/2000/svg">
  <sodipodi:namedview
     id="namedview2"
     pagecolor="#505050"
     bordercolor="#eeeeee"
     borderopacity="1"
     inkscape:showpageshadow="0"
     inkscape:pageopacity="0"
     inkscape:pagecheckerboard="0"
     inkscape:deskcolor="#505050"
     inkscape:zoom="36.46875"
     inkscape:cx="16"
     inkscape:cy="16"
     inkscape:window-width="2560"
     inkscape:window-height="1369"
     inkscape:window-x="2872"
     inkscape:window-y="-8"
     inkscape:window-maximized="1"
     inkscape:current-layer="admin" />
  <defs
     id="defs1">
    <style
       id="style1">.cls-1{stroke-width:0px;}</style>
  </defs>
  <path
     class="cls-1"
     d="M16,10.892578c-2.816406,0-5.107422,2.291016-5.107422,5.107422s2.291016,5.107422,5.107422,5.107422,5.107422-2.291016,5.107422-5.107422-2.291016-5.107422-5.107422-5.107422ZM16,19.507812c-1.934082,0-3.507812-1.57373-3.507812-3.507812s1.57373-3.507812,3.507812-3.507812,3.507812,1.57373,3.507812,3.507812-1.57373,3.507812-3.507812,3.507812Z"
     id="path1"
     style="fill:#bebebe;fill-opacity:1" />
  <path
     class="cls-1"
     d="M30.869141,13.180664c-.119629-.239746-.352539-.403809-.618652-.436035l-4.293945-.522461c-.038086-.100586-.078125-.200195-.119141-.299316-.000305-.000671-.000916-.001099-.001221-.00177-.039795-.097046-.081726-.193665-.124756-.289734l2.66748-3.405762c.165527-.211426.213867-.491699.128906-.746094-.489746-1.468262-1.458008-2.447754-1.498535-2.48877-.041016-.040527-1.020508-1.008789-2.48877-1.498535-.253418-.084961-.534668-.036621-.746094.128906l-3.405762,2.66748c-.096069-.04303-.192688-.084961-.289734-.124756-.000671-.000305-.001099-.000916-.00177-.001221-.099121-.041016-.19873-.081055-.299316-.119141l-.522461-4.293945c-.032227-.266113-.196289-.499023-.436035-.618652-1.383789-.691895-2.76123-.699707-2.819336-.699707s-1.435547.007812-2.819336.699707c-.239746.119629-.403809.352539-.436035.618652l-.522461,4.293945c-.100586.038086-.200195.078125-.299316.119141-.000671.000305-.001099.000916-.00177.001221-.097046.039795-.193665.081726-.289734.124756l-3.405762-2.66748c-.210938-.165527-.492676-.213867-.746094-.128906-1.468262.489746-2.447754,1.458008-2.48877,1.498535-.040527.041016-1.008789,1.020508-1.498535,2.48877-.084961.254395-.036621.534668.128906.746094l2.66748,3.405762c-.04303.096069-.084961.192688-.124756.289734-.000305.000671-.000916.001099-.001221.00177-.041016.099121-.081055.19873-.119141.299316l-4.293945.522461c-.266113.032227-.499023.196289-.618652.436035-.691895,1.383789-.699707,2.76123-.699707,2.819336s.007812,1.435547.699707,2.819336c.119629.239746.352539.403809.618652.436035l4.293945.522461c.038086.100586.078125.200195.119141.299316.000366.000916.001099.001526.001465.002441.039734.09668.081604.193176.124512.289062l-2.66748,3.405762c-.165527.211426-.213867.491699-.128906.746094.489746,1.468262,1.458008,2.447754,1.498535,2.48877.041016.040527,1.020508,1.008789,2.48877,1.498535.08252.027832.167969.041016.25293.041016.17627,0,.350586-.058105.493164-.169922l3.405762-2.66748c.09613.04303.192688.085022.289734.124817.000671.000305.001099.000854.00177.00116.099121.041016.19873.081055.299316.119141l.522461,4.293945c.032227.266113.196289.499023.436035.618652,1.383789.691895,2.76123.699707,2.819336.699707s1.435547-.007812,2.819336-.699707c.239746-.119629.403809-.352539.436035-.618652l.522461-4.293945c.100586-.038086.200195-.078125.299316-.119141.000671-.000305.001099-.000854.00177-.00116.097046-.039795.193604-.081787.289734-.124817l3.405762,2.66748c.142578.111816.316895.169922.493164.169922.084961,0,.17041-.013184.25293-.041016,1.468262-.489746,2.447754-1.458008,2.48877-1.498535.040527-.041016,1.008789-1.020508,1.498535-2.48877.084961-.254395.036621-.534668-.128906-.746094l-2.66748-3.405762c.042908-.095886.084778-.192383.124512-.289062.000366-.000916.001099-.001526.001465-.002441.041016-.099121.081055-.19873.119141-.299316l4.293945-.522461c.266113-.032227.499023-.196289.618652-.436035.691895-1.383789.699707-2.76123.699707-2.819336s-.007812-1.435547-.699707-2.819336ZM29.607422,17.722168l-4.337402.527344c-.309082.037598-.567871.250977-.664062.546875-.073547.226013-.155518.44812-.245483.665833,0,.000061-.000122.000122-.000122.000183-.090332.218262-.189941.433594-.297852.645508-.141113.277344-.108887.611328.083008.856445l2.694336,3.439941c-.387207.883789-.95752,1.46875-.962402,1.473145-.006348.006836-.59082.575684-1.473145.962402l-3.439941-2.694336c-.245605-.191895-.579102-.224121-.856445-.083008-.211914.10791-.427246.20752-.645508.297852-.000061,0-.000122.000122-.000183.000122-.217712.089966-.439819.171936-.665833.245483-.295898.096191-.509277.35498-.546875.664062l-.527344,4.337402c-.898438.351074-1.714844.361328-1.719238.361816-.009277-.000488-.82666-.010742-1.725098-.361816l-.527344-4.337402c-.037598-.309082-.250977-.567871-.546875-.664062-.226013-.073547-.44812-.155518-.665833-.245483-.000061,0-.000122-.000122-.000183-.000122-.218262-.090332-.433594-.189941-.645508-.297852-.275879-.140625-.611328-.10791-.856445.083008l-3.439941,2.694336c-.883789-.387207-1.46875-.95752-1.473145-.962402-.006836-.006348-.575684-.59082-.962402-1.473145l2.694336-3.439941c.191895-.245117.224121-.579102.083008-.856445-.10791-.211914-.20752-.427246-.297852-.645508,0-.000061-.000122-.000122-.000122-.000183-.089966-.217712-.171936-.439819-.245483-.665833-.096191-.295898-.35498-.509277-.664062-.546875l-4.337402-.527344c-.351074-.898438-.361328-1.714844-.361816-1.719238.000488-.009277.010742-.82666.361816-1.725098l4.337402-.527344c.309082-.037598.567871-.250977.664062-.546875.073547-.226013.155518-.448059.245483-.665771.000061-.000061.000061-.000183.000122-.000244.090332-.218262.189941-.433594.297852-.645508.141113-.277344.108887-.611328-.083008-.856445l-2.694336-3.439941c.387207-.883789.95752-1.46875.962402-1.473145.006348-.006836.59082-.575684,1.473145-.962402l3.439941,2.694336c.245117.192383.580078.224609.856445.083008.211914-.10791.427246-.20752.645508-.297852.000061,0,.000122-.000122.000183-.000122.217712-.089966.439819-.171936.665833-.245483.295898-.096191.509277-.35498.546875-.664062l.527344-4.337402c.898438-.351074,1.714844-.361328,1.719238-.361816.009277.000488.82666.010742,1.725098.361816l.527344,4.337402c.037598.309082.250977.567871.546875.664062.226013.073547.44812.155518.665833.245483.000061,0,.000122.000122.000183.000122.218262.090332.433594.189941.645508.297852.277832.14209.611816.109375.856445-.083008l3.439941-2.694336c.883789.387207,1.46875.95752,1.473145.962402.006836.006348.575684.59082.962402,1.473145l-2.694336,3.439941c-.191895.245117-.224121.579102-.083008.856445.10791.211914.20752.427246.297852.645508.000061.000061.000061.000183.000122.000244.089966.217712.171936.439758.245483.665771.096191.295898.35498.509277.664062.546875l4.337402.527344c.351074.898438.361328,1.714844.361816,1.719238-.000488.009277-.010742.82666-.361816,1.725098Z"
     id="path2"
     style="fill:#bebebe;fill-opacity:1" />
</svg>
