<svg id="crossmark" xmlns="http://www.w3.org/2000/svg" viewBox="0 0 32 32" fill="#ffffff"><defs><style>.cls-1{stroke-width:0px;}</style></defs><path class="cls-1" d="M17.131836,16l10.51123-10.51123c.312012-.3125.312012-.819336,0-1.131836-.3125-.311523-.819336-.311523-1.131836,0l-10.51123,10.51123L5.48877,4.356934c-.3125-.311523-.819336-.311523-1.131836,0-.312012.3125-.312012.819336,0,1.131836l10.51123,10.51123-10.51123,10.51123c-.312012.3125-.312012.819336,0,1.131836.15625.155762.361328.233887.565918.233887s.409668-.078125.565918-.233887l10.51123-10.51123,10.51123,10.51123c.15625.155762.361328.233887.565918.233887s.409668-.078125.565918-.233887c.312012-.3125.312012-.819336,0-1.131836l-10.51123-10.51123Z"/></svg>