<?xml version="1.0" encoding="UTF-8" standalone="no"?>
<svg
   id="crossmark"
   viewBox="0 0 32 32"
   fill="#FF4116"
   version="1.1"
   sodipodi:docname="bp-crossmark-interface-arri-bright-orange-32.svg"
   inkscape:version="1.4.2 (f4327f4, 2025-05-13)"
   xmlns:inkscape="http://www.inkscape.org/namespaces/inkscape"
   xmlns:sodipodi="http://sodipodi.sourceforge.net/DTD/sodipodi-0.dtd"
   xmlns="http://www.w3.org/2000/svg"
   xmlns:svg="http://www.w3.org/2000/svg">
  <sodipodi:namedview
     id="namedview1"
     pagecolor="#505050"
     bordercolor="#eeeeee"
     borderopacity="1"
     inkscape:showpageshadow="0"
     inkscape:pageopacity="0"
     inkscape:pagecheckerboard="0"
     inkscape:deskcolor="#505050"
     inkscape:zoom="36.46875"
     inkscape:cx="15.98629"
     inkscape:cy="16"
     inkscape:window-width="3440"
     inkscape:window-height="1369"
     inkscape:window-x="2872"
     inkscape:window-y="-8"
     inkscape:window-maximized="1"
     inkscape:current-layer="crossmark" />
  <defs
     id="defs1">
    <style
       id="style1">.cls-1{stroke-width:0px;}</style>
  </defs>
  <path
     class="cls-1"
     d="M 17.131836,16 27.643066,5.48877 c 0.312012,-0.3125 0.312012,-0.819336 0,-1.131836 -0.3125,-0.311523 -0.819336,-0.311523 -1.131836,0 L 16,14.868164 5.48877,4.356934 c -0.3125,-0.311523 -0.819336,-0.311523 -1.131836,0 -0.312012,0.3125 -0.312012,0.819336 0,1.131836 L 14.868164,16 4.356934,26.51123 c -0.312012,0.3125 -0.312012,0.819336 0,1.131836 0.15625,0.155762 0.361328,0.233887 0.565918,0.233887 0.20459,0 0.409668,-0.07813 0.565918,-0.233887 L 16,17.131836 26.51123,27.643066 c 0.15625,0.155762 0.361328,0.233887 0.565918,0.233887 0.20459,0 0.409668,-0.07813 0.565918,-0.233887 0.312012,-0.3125 0.312012,-0.819336 0,-1.131836 z"
     id="path1"
     style="display:inline;fill:#ff6600;fill-opacity:1" />
  <path
     style="display:inline;fill:#ff6600;fill-opacity:0;stroke-width:0.0274207"
     d="m 4.7639271,27.844366 c -0.2670244,-0.06555 -0.501514,-0.276484 -0.5842373,-0.52554 -0.056952,-0.171467 -0.041708,-0.43177 0.033918,-0.57918 0.031449,-0.0613 2.2093643,-2.259582 5.3711544,-5.421379 L 14.903017,16 9.5834708,10.681772 C 4.8362853,5.9357634 4.2573769,5.347905 4.2030703,5.2181904 3.9881681,4.7048834 4.3730859,4.1413145 4.9357326,4.1454791 5.287111,4.14808 4.8784764,3.7628599 10.701413,9.5807901 l 5.313238,5.3086699 5.303448,-5.3059124 c 5.823525,-5.8262302 5.414198,-5.4396977 5.759879,-5.4391142 0.423175,7.144e-4 0.781491,0.3572414 0.781491,0.7775889 0,0.074275 -0.02607,0.2064604 -0.05794,0.2937443 -0.05579,0.1527956 -0.255408,0.3562905 -5.367339,5.4714994 l -5.309396,5.312802 5.296127,5.299023 c 3.852774,3.854882 5.31279,5.332432 5.357271,5.421611 0.139529,0.279734 0.08929,0.644456 -0.120051,0.871566 -0.209203,0.226958 -0.480117,0.313224 -0.759159,0.241737 -0.09251,-0.0237 -0.194969,-0.06141 -0.22768,-0.0838 -0.03271,-0.02239 -2.44384,-2.425475 -5.358066,-5.340186 l -5.298592,-5.299475 -5.313233,5.308578 c -4.6257811,4.621728 -5.3309723,5.315896 -5.4503369,5.365142 -0.1712396,0.07065 -0.3528989,0.09306 -0.487144,0.06011 z"
     id="path2" />
  <path
     style="display:inline;fill:#ff6600;fill-opacity:0;stroke-width:0.0274207"
     d="m 4.7639271,27.844366 c -0.2670244,-0.06555 -0.501514,-0.276484 -0.5842373,-0.52554 -0.056952,-0.171467 -0.041708,-0.43177 0.033918,-0.57918 0.031449,-0.0613 2.2093643,-2.259582 5.3711544,-5.421379 L 14.903017,16 9.5834708,10.681772 C 4.8362853,5.9357634 4.2573769,5.347905 4.2030703,5.2181904 3.9881681,4.7048834 4.3730859,4.1413145 4.9357326,4.1454791 5.287111,4.14808 4.8784764,3.7628599 10.701413,9.5807901 l 5.313238,5.3086699 5.303448,-5.3059124 c 5.823525,-5.8262302 5.414198,-5.4396977 5.759879,-5.4391142 0.423175,7.144e-4 0.781491,0.3572414 0.781491,0.7775889 0,0.074275 -0.02607,0.2064604 -0.05794,0.2937443 -0.05579,0.1527956 -0.255408,0.3562905 -5.367339,5.4714994 l -5.309396,5.312802 5.296127,5.299023 c 3.852774,3.854882 5.31279,5.332432 5.357271,5.421611 0.139529,0.279734 0.08929,0.644456 -0.120051,0.871566 -0.209203,0.226958 -0.480117,0.313224 -0.759159,0.241737 -0.09251,-0.0237 -0.194969,-0.06141 -0.22768,-0.0838 -0.03271,-0.02239 -2.44384,-2.425475 -5.358066,-5.340186 l -5.298592,-5.299475 -5.313233,5.308578 c -4.6257811,4.621728 -5.3309723,5.315896 -5.4503369,5.365142 -0.1712396,0.07065 -0.3528989,0.09306 -0.487144,0.06011 z"
     id="path3" />
  <path
     style="display:inline;fill:#ff6600;fill-opacity:0;stroke-width:0.0274207"
     d="m 4.7639271,27.844366 c -0.2670244,-0.06555 -0.501514,-0.276484 -0.5842373,-0.52554 -0.056952,-0.171467 -0.041708,-0.43177 0.033918,-0.57918 0.031449,-0.0613 2.2093643,-2.259582 5.3711544,-5.421379 L 14.903017,16 9.5834708,10.681772 C 4.8362853,5.9357634 4.2573769,5.347905 4.2030703,5.2181904 3.9881681,4.7048834 4.3730859,4.1413145 4.9357326,4.1454791 5.287111,4.14808 4.8784764,3.7628599 10.701413,9.5807901 l 5.313238,5.3086699 5.303448,-5.3059124 c 5.823525,-5.8262302 5.414198,-5.4396977 5.759879,-5.4391142 0.651362,0.0011 1.016963,0.7746075 0.603857,1.2775907 -0.04045,0.049249 -2.432364,2.4494231 -5.315368,5.3337199 l -5.241824,5.244176 5.296201,5.299097 c 3.852828,3.854936 5.312864,5.332506 5.357345,5.421685 0.139529,0.279734 0.08929,0.644456 -0.120051,0.871566 -0.209203,0.226958 -0.480117,0.313224 -0.759159,0.241737 -0.09251,-0.0237 -0.194969,-0.06141 -0.22768,-0.0838 -0.03271,-0.02239 -2.44384,-2.425475 -5.358066,-5.340186 l -5.298592,-5.299475 -5.313233,5.308578 c -4.6257811,4.621728 -5.3309723,5.315896 -5.4503369,5.365142 -0.1712396,0.07065 -0.3528989,0.09306 -0.487144,0.06011 z"
     id="path4" />
  <path
     style="display:inline;fill:#ff6600;fill-opacity:0;stroke-width:0.0274207"
     d="m 4.7639271,27.844366 c -0.2670244,-0.06555 -0.501514,-0.276484 -0.5842373,-0.52554 -0.056952,-0.171467 -0.041708,-0.43177 0.033918,-0.57918 0.031449,-0.0613 2.2093643,-2.259582 5.3711544,-5.421379 L 14.903017,16 9.5834708,10.681772 C 4.8362853,5.9357634 4.2573769,5.347905 4.2030703,5.2181904 3.9881681,4.7048834 4.3730859,4.1413145 4.9357326,4.1454791 5.287111,4.14808 4.8784764,3.7628599 10.701413,9.5807901 l 5.313238,5.3086699 5.303448,-5.3059124 c 5.823525,-5.8262302 5.414198,-5.4396977 5.759879,-5.4391142 0.423175,7.144e-4 0.781491,0.3572414 0.781491,0.7775889 0,0.074275 -0.02607,0.2064604 -0.05794,0.2937443 -0.05579,0.1527956 -0.255408,0.3562905 -5.367339,5.4714994 l -5.309396,5.312802 5.296127,5.299023 c 3.852774,3.854882 5.31279,5.332432 5.357271,5.421611 0.139529,0.279734 0.08929,0.644456 -0.120051,0.871566 -0.209203,0.226958 -0.480117,0.313224 -0.759159,0.241737 -0.09251,-0.0237 -0.194969,-0.06141 -0.22768,-0.0838 -0.03271,-0.02239 -2.44384,-2.425475 -5.358066,-5.340186 l -5.298592,-5.299475 -5.313233,5.308578 c -4.6257811,4.621728 -5.3309723,5.315896 -5.4503369,5.365142 -0.1712396,0.07065 -0.3528989,0.09306 -0.487144,0.06011 z"
     id="path5" />
  <path
     style="display:inline;fill:#ff6600;fill-opacity:0;stroke-width:0.0274207"
     d="m 4.7639271,27.844366 c -0.2670244,-0.06555 -0.501514,-0.276484 -0.5842373,-0.52554 -0.056952,-0.171467 -0.041708,-0.43177 0.033918,-0.57918 0.031449,-0.0613 2.2093643,-2.259582 5.3711544,-5.421379 L 14.903017,16 9.5834708,10.681772 C 4.8362853,5.9357634 4.2573769,5.347905 4.2030703,5.2181904 3.9881681,4.7048834 4.3730859,4.1413145 4.9357326,4.1454791 5.287111,4.14808 4.8784764,3.7628599 10.701413,9.5807901 l 5.313238,5.3086699 5.303448,-5.3059124 c 5.823525,-5.8262302 5.414198,-5.4396977 5.759879,-5.4391142 0.423175,7.144e-4 0.781491,0.3572414 0.781491,0.7775889 0,0.074275 -0.02607,0.2064604 -0.05794,0.2937443 -0.05579,0.1527956 -0.255408,0.3562905 -5.367339,5.4714994 l -5.309396,5.312802 5.296127,5.299023 c 3.852774,3.854882 5.31279,5.332432 5.357271,5.421611 0.139529,0.279734 0.08929,0.644456 -0.120051,0.871566 -0.209203,0.226958 -0.480117,0.313224 -0.759159,0.241737 -0.09251,-0.0237 -0.194969,-0.06141 -0.22768,-0.0838 -0.03271,-0.02239 -2.44384,-2.425475 -5.358066,-5.340186 l -5.298592,-5.299475 -5.313233,5.308578 c -4.6257811,4.621728 -5.3309723,5.315896 -5.4503369,5.365142 -0.1712396,0.07065 -0.3528989,0.09306 -0.487144,0.06011 z"
     id="path6" />
  <path
     style="display:inline;fill:#ff6600;fill-opacity:1;stroke-width:0.0274207"
     d="m 4.7639271,27.844366 c -0.2670244,-0.06555 -0.501514,-0.276484 -0.5842373,-0.52554 -0.056952,-0.171467 -0.041708,-0.43177 0.033918,-0.57918 0.031449,-0.0613 2.2093643,-2.259582 5.3711544,-5.421379 L 14.903017,16 9.5834708,10.681772 C 4.8362853,5.9357634 4.2573769,5.347905 4.2030703,5.2181904 3.9881681,4.7048834 4.3730859,4.1413145 4.9357326,4.1454791 5.287111,4.14808 4.8784764,3.7628599 10.701413,9.5807901 l 5.313238,5.3086699 5.303448,-5.3059124 c 5.823525,-5.8262302 5.414198,-5.4396977 5.759879,-5.4391142 0.423175,7.144e-4 0.781491,0.3572414 0.781491,0.7775889 0,0.074275 -0.02607,0.2064604 -0.05794,0.2937443 -0.05579,0.1527956 -0.255408,0.3562905 -5.367339,5.4714994 l -5.309396,5.312802 5.296127,5.299023 c 3.852774,3.854882 5.31279,5.332432 5.357271,5.421611 0.139529,0.279734 0.08929,0.644456 -0.120051,0.871566 -0.209203,0.226958 -0.480117,0.313224 -0.759159,0.241737 -0.09251,-0.0237 -0.194969,-0.06141 -0.22768,-0.0838 -0.03271,-0.02239 -2.44384,-2.425475 -5.358066,-5.340186 l -5.298592,-5.299475 -5.313233,5.308578 c -4.6257811,4.621728 -5.3309723,5.315896 -5.4503369,5.365142 -0.1712396,0.07065 -0.3528989,0.09306 -0.487144,0.06011 z"
     id="path7" />
  <path
     style="display:inline;fill:#ff6600;fill-opacity:1;stroke-width:0.0274207"
     d="M 4.7639271,27.844647 C 4.4944658,27.777762 4.2638056,27.572074 4.1819732,27.3257 4.1219877,27.145101 4.1368274,26.889306 4.2162741,26.734448 4.2512706,26.666233 6.239414,24.659232 9.5870695,21.312711 L 14.902299,15.999282 9.5831118,10.681413 C 3.7549945,4.8547405 4.1433499,5.2652029 4.1413737,4.9299061 4.138068,4.3690379 4.7457813,3.9740576 5.2510711,4.2086635 c 0.113163,0.052542 1.0626487,0.9882323 5.4375169,5.3585166 2.915228,2.9121729 5.303963,5.2979899 5.3083,5.3018159 0.0043,0.0038 2.394472,-2.37556 5.311411,-5.2875247 4.060377,-4.0534532 5.335663,-5.3111858 5.44063,-5.3657437 0.352872,-0.1834104 0.840848,-0.011965 1.03471,0.3635355 0.08676,0.1680465 0.09522,0.4283587 0.02051,0.6306769 -0.05913,0.1601221 -0.202462,0.3063275 -5.356618,5.464005 -2.912723,2.914715 -5.295861,5.311419 -5.295861,5.32601 0,0.01459 2.377119,2.405146 5.282487,5.312344 3.831823,3.834237 5.299334,5.31948 5.343832,5.408403 0.08517,0.170204 0.10156,0.419769 0.03978,0.605778 -0.141269,0.42532 -0.677644,0.658723 -1.063565,0.462809 -0.100164,-0.05085 -1.405597,-1.341154 -5.434845,-5.371867 -2.91666,-2.917719 -5.309155,-5.29921 -5.316657,-5.292202 -0.0075,0.007 -2.39884,2.395405 -5.314083,5.307551 -4.2187174,4.214234 -5.3263683,5.30659 -5.4274762,5.352528 -0.1535577,0.06977 -0.357273,0.09409 -0.4972147,0.05935 z"
     id="path8" />
</svg>
