<?xml version="1.0" encoding="UTF-8" standalone="no"?>
<svg
   id="Layer_1"
   data-name="Layer 1"
   viewBox="0 0 1000 1000"
   fill="#ffffff"
   version="1.1"
   sodipodi:docname="bp-lgf-feed-dark-grey.svg"
   inkscape:version="1.4.3 (0d15f75, 2025-12-25)"
   xml:space="preserve"
   xmlns:inkscape="http://www.inkscape.org/namespaces/inkscape"
   xmlns:sodipodi="http://sodipodi.sourceforge.net/DTD/sodipodi-0.dtd"
   xmlns="http://www.w3.org/2000/svg"
   xmlns:svg="http://www.w3.org/2000/svg"
   xmlns:rdf="http://www.w3.org/1999/02/22-rdf-syntax-ns#"
   xmlns:cc="http://creativecommons.org/ns#"
   xmlns:dc="http://purl.org/dc/elements/1.1/"><defs
     id="defs5" /><sodipodi:namedview
     id="namedview5"
     pagecolor="#505050"
     bordercolor="#eeeeee"
     borderopacity="1"
     inkscape:showpageshadow="0"
     inkscape:pageopacity="0"
     inkscape:pagecheckerboard="0"
     inkscape:deskcolor="#505050"
     inkscape:zoom="0.71302394"
     inkscape:cx="565.19842"
     inkscape:cy="478.94605"
     inkscape:window-width="3440"
     inkscape:window-height="1369"
     inkscape:window-x="2872"
     inkscape:window-y="-8"
     inkscape:window-maximized="1"
     inkscape:current-layer="Layer_1" /><title
     id="title1">screen-dollar</title><path
     d="M932.7,61.88H67.3A64.89,64.89,0,0,0,2.48,126.7V688.48A64.89,64.89,0,0,0,67.3,753.3H384.37V893.56H313.3a22.28,22.28,0,1,0,0,44.56H686.7a22.28,22.28,0,0,0,0-44.56H615.63V753.3H932.7a64.89,64.89,0,0,0,64.82-64.82V126.7A64.89,64.89,0,0,0,932.7,61.88ZM571.07,893.56H428.93V753.3H571.07ZM953,688.48a20.3,20.3,0,0,1-20.27,20.27H67.3A20.3,20.3,0,0,1,47,688.48V126.7A20.29,20.29,0,0,1,67.3,106.44H932.7A20.29,20.29,0,0,1,953,126.7Z"
     id="path1"
     style="fill:#333333;fill-opacity:1" /><metadata
     id="metadata5"><rdf:RDF><cc:Work
         rdf:about=""><dc:title>screen-dollar</dc:title></cc:Work></rdf:RDF></metadata><g
     id="g1"
     transform="matrix(5.1757741,0,0,4.9313461,241.21652,159.07947)"
     style="fill:#333333;fill-opacity:1"><path
       d="m 45.898,9.5312 -0.20703,0.21875 -20.395,20.391 c -1.082,1.0781 -1.6328,2.5234 -1.6328,3.9531 0,1.4414 0.54297,2.8906 1.6211,3.9688 h 0.0039 c 1.082,1.082 2.5312,1.6328 3.9688,1.6328 v 0.0039 c 1.4297,0 2.8789,-0.55078 3.9609,-1.6367 v -0.0078 l 7.0703,-7.0664 c 0.93359,-0.9375 2.4648,-0.9375 3.4023,0 0.46875,0.46484 0.70312,1.0781 0.70312,1.6992 h 0.0039 v 53.938 c 0,1.5469 0.63281,2.957 1.6406,3.957 l 0.04297,0.04297 c 1,0.98828 2.3945,1.6016 3.918,1.6016 1.543,0 2.9531,-0.63281 3.957,-1.6406 l 0.04297,-0.04297 c 0.98828,-1 1.6016,-2.3906 1.6016,-3.918 v -53.938 c 0,-1.3281 1.082,-2.4102 2.4102,-2.4102 0.66406,0 1.2656,0.27344 1.6992,0.71094 l 0.08594,0.08203 6.9844,6.9844 0.08203,0.08984 0.04297,0.04297 c 1.0703,1 2.4688,1.5117 3.8359,1.5117 v -0.0039 c 1.4375,0 2.8867,-0.55078 3.9688,-1.6328 l 0.08594,-0.08203 0.01563,-0.01563 c 1.0156,-1.0625 1.5234,-2.4727 1.5234,-3.8711 0,-1.4297 -0.55078,-2.875 -1.6328,-3.9531 l -0.08203,-0.08984 -20.387,-20.383 -0.03906,-0.039063 -0.0078,-0.00391 c -0.36719,-0.38672 -0.69922,-0.67188 -1.0352,-0.89453 L 53.06912,8.675939 C 52.7449,8.472819 52.366,8.281409 51.90502,8.093909 L 51.846408,8.06656 c -0.96875,-0.34766 -2.043,-0.36328 -3.0625,-0.13281 l -0.21484,0.039062 c -1,0.27344 -1.9297,0.82422 -2.6719,1.5586 z m -0.14844,0.16406 -0.05859,0.054688 m -23.793,16.984 20.457,-20.445 c 1.3867,-1.4414 3.1758,-2.4805 5.082,-2.9805 l 0.23438,-0.070313 c 1.9336,-0.46094 4.0039,-0.37891 5.9492,0.35547 l 0.14453,0.058594 c 0.73828,0.30859 1.3789,0.63672 1.9922,1.0352 l 0.05078,0.03125 c 0.625,0.41406 1.2227,0.92578 1.8555,1.582 l 20.312,20.309 0.13281,0.125 c 2.0234,2.0234 3.0469,4.6953 3.0469,7.3594 0,2.6055 -0.97266,5.2188 -2.9141,7.2383 l -0.04688,0.04297 -0.08203,0.08984 c -2.0312,2.0312 -4.7148,3.0508 -7.3711,3.0508 v -0.0078 c -2.6016,-0.0039 -5.2266,-0.98437 -7.2344,-2.9219 l -0.04297,-0.04688 -0.08984,-0.07812 -2.9531,-2.957 v 48.121 c 0,2.8281 -1.1602,5.4375 -3.0195,7.3086 l -0.04297,0.04687 -0.0078,0.0039 c -1.8789,1.8867 -4.4961,3.0625 -7.3516,3.0625 -2.8359,0 -5.4375,-1.1562 -7.3086,-3.0156 l -0.04297,-0.04687 -0.0078,-0.0039 c -1.8867,-1.8789 -3.0625,-4.5 -3.0625,-7.3555 v -48.121 l -2.957,2.957 -0.0039,-0.0078 c -2.0195,2.0234 -4.707,3.0508 -7.3594,3.0547 v 0.0078 c -2.6562,0 -5.3398,-1.0195 -7.3711,-3.0508 v -0.0039 c -2.0273,-2.0352 -3.043,-4.7031 -3.043,-7.3672 0,-2.6641 1.0234,-5.3359 3.0469,-7.3594 z"
       id="path1-0"
       style="fill:#333333;fill-opacity:1" /></g></svg>
