<svg id="Layer_1" data-name="Layer 1" xmlns="http://www.w3.org/2000/svg" viewBox="0 0 1000 1000" fill="#ffffff"><path d="M383.66,420.79a22.28,22.28,0,0,1-22.27,22.28H284.65V658.42a22.28,22.28,0,0,1-44.55,0V443.07H163.37a22.28,22.28,0,0,1,0-44.56h198A22.28,22.28,0,0,1,383.66,420.79ZM715.35,272.28A111.39,111.39,0,1,1,826.73,383.66,111.51,111.51,0,0,1,715.35,272.28Zm44.55,0a66.83,66.83,0,1,0,66.83-66.83A66.91,66.91,0,0,0,759.9,272.28ZM997.52,459.5v210c0,42.84-18.21,83-50,110.24-30.61,26.23-71.26,39.54-120.82,39.54-26,0-49.62-3.73-70.66-11.07a199.91,199.91,0,0,1-65.83,114c-43,36.81-100.3,55.48-170.44,55.48-61.54,0-146.36-15.29-201-88.12-32.87-43.83-38.7-88-38.93-89.81a2.58,2.58,0,0,1,0-.29H24.75A22.27,22.27,0,0,1,2.48,777.23V302A22.28,22.28,0,0,1,24.75,279.7H386.2a150.88,150.88,0,0,1-7.49-47c0-83.25,67.74-151,151-151s151,67.74,151,151-67.73,151-151,151c-2.48,0-5-.07-7.42-.19v34.85H717.82a43.91,43.91,0,0,1,21,5.4H961.75C979.09,423.72,997.52,436.26,997.52,459.5Zm-280,3.37h0ZM434.2,279.7H500A22.29,22.29,0,0,1,522.28,302v36.85c2.47.17,4.94.28,7.42.28a106.38,106.38,0,1,0-95.5-59.41ZM47,755H477.72V324.26H47ZM715.35,462.87H522.28V777.23A22.28,22.28,0,0,1,500,799.5H325c5.34,25.63,37.21,133.67,194.78,133.67,59.21,0,106.79-15.06,141.44-44.76,34.39-29.47,54.11-73.2,54.11-120ZM953,468.27H759.9V761.82c18.66,8.58,41.07,12.93,66.83,12.93,38.63,0,69.52-9.69,91.83-28.81,21.87-18.75,34.41-46.6,34.41-76.41Z"/></svg>