<svg id="power" xmlns="http://www.w3.org/2000/svg" viewBox="0 0 32 32"><defs><style>.cls-1{stroke-width:0px;}</style></defs><path class="cls-1" d="M22.863281,4.114258c-.383789-.223633-.87207-.09082-1.092773.291992-.22168.382324-.09082.871582.291978,1.092773,3.738296,2.162598,6.060562,6.186523,6.060562,10.500977,0,6.68457-5.438477,12.123047-12.123047,12.123047S3.876953,22.68457,3.876953,16c0-4.314453,2.322266-8.338379,6.060533-10.500977.382827-.221191.513686-.710449.292007-1.092773-.220703-.381836-.708984-.51416-1.092773-.291992-4.231445,2.447754-6.859375,7.001953-6.859375,11.885742,0,7.566895,6.15625,13.722656,13.722656,13.722656s13.722656-6.155762,13.722656-13.722656c0-4.883789-2.62793-9.437988-6.859375-11.885742Z"/><path class="cls-1" d="M16,13.107422c.441406,0,.799805-.35791.799805-.799805V1.230957c0-.441895-.358398-.799805-.799805-.799805s-.799805.35791-.799805.799805v11.07666c0,.441895.358398.799805.799805.799805Z"/></svg>