<svg id="Layer_1" xmlns="http://www.w3.org/2000/svg" viewBox="0 0 1000 1000" fill="#ffffff"><path d="M718.802,355.865c-9.818-7.418-23.786-5.473-31.204,4.343-7.418,9.816-5.473,23.788,4.343,31.204,32.064,24.228,51.207,64.811,51.207,108.559s-19.143,84.331-51.207,108.559c-9.816,7.416-11.761,21.388-4.343,31.204,4.38,5.797,11.044,8.849,17.791,8.849,4.678,0,9.392-1.468,13.413-4.506,43.143-32.6,68.901-86.471,68.901-144.106s-25.758-111.506-68.901-144.106Z"/><path d="M880.629,223.855c-9.04-8.346-23.134-7.782-31.48,1.259-8.344,9.04-7.782,23.136,1.259,31.48,65.18,60.166,102.562,149.054,102.562,243.876s-37.22,183.309-102.116,243.464c-9.023,8.364-9.559,22.459-1.195,31.482,4.39,4.736,10.359,7.134,16.344,7.134,5.418,0,10.85-1.965,15.138-5.939,73.963-68.559,116.383-169.208,116.383-276.141s-42.607-208.041-116.895-276.615Z"/><path d="M545.225,37.322c-31.08,0-61.262,11.055-84.988,31.132l-223.445,189.068H24.752c-12.303,0-22.277,9.974-22.277,22.277v440.401c0,12.303,9.974,22.277,22.277,22.277h212.04l223.445,189.068c23.726,20.077,53.908,31.132,84.988,31.132,12.303,0,22.277-9.974,22.277-22.277V59.599c0-12.303-9.974-22.277-22.277-22.277ZM522.948,915.217c-12.398-3.286-24.018-9.294-33.932-17.683l-229.674-194.34c-4.022-3.403-9.12-5.272-14.389-5.272H47.03v-395.846h197.923c5.27,0,10.367-1.868,14.389-5.272l229.674-194.34c9.915-8.389,21.535-14.397,33.932-17.683v830.434Z"/></svg>