<?xml version="1.0" encoding="UTF-8" standalone="no"?>
<svg
   id="Layer_1"
   viewBox="0 0 1000 1000"
   fill="#ffffff"
   version="1.1"
   sodipodi:docname="bp-sound-pictograms-white-vol-down.svg"
   inkscape:version="1.4.2 (f4327f4, 2025-05-13)"
   xmlns:inkscape="http://www.inkscape.org/namespaces/inkscape"
   xmlns:sodipodi="http://sodipodi.sourceforge.net/DTD/sodipodi-0.dtd"
   xmlns="http://www.w3.org/2000/svg"
   xmlns:svg="http://www.w3.org/2000/svg">
  <defs
     id="defs3" />
  <sodipodi:namedview
     id="namedview3"
     pagecolor="#505050"
     bordercolor="#eeeeee"
     borderopacity="1"
     inkscape:showpageshadow="0"
     inkscape:pageopacity="0"
     inkscape:pagecheckerboard="0"
     inkscape:deskcolor="#505050"
     inkscape:zoom="1.167"
     inkscape:cx="500"
     inkscape:cy="500"
     inkscape:window-width="2560"
     inkscape:window-height="1369"
     inkscape:window-x="2872"
     inkscape:window-y="-8"
     inkscape:window-maximized="1"
     inkscape:current-layer="Layer_1" />
  <path
     d="M718.802,355.865c-9.818-7.418-23.786-5.473-31.204,4.343-7.418,9.816-5.473,23.788,4.343,31.204,32.064,24.228,51.207,64.811,51.207,108.559s-19.143,84.331-51.207,108.559c-9.816,7.416-11.761,21.388-4.343,31.204,4.38,5.797,11.044,8.849,17.791,8.849,4.678,0,9.392-1.468,13.413-4.506,43.143-32.6,68.901-86.471,68.901-144.106s-25.758-111.506-68.901-144.106Z"
     id="path1" />
  <path
     d="M545.225,37.322c-31.08,0-61.262,11.055-84.988,31.132l-223.445,189.068H24.752c-12.303,0-22.277,9.974-22.277,22.277v440.401c0,12.303,9.974,22.277,22.277,22.277h212.04l223.445,189.068c23.726,20.077,53.908,31.132,84.988,31.132,12.303,0,22.277-9.974,22.277-22.277V59.599c0-12.303-9.974-22.277-22.277-22.277ZM522.948,915.217c-12.398-3.286-24.018-9.294-33.932-17.683l-229.674-194.34c-4.022-3.403-9.12-5.272-14.389-5.272H47.03v-395.846h197.923c5.27,0,10.367-1.868,14.389-5.272l229.674-194.34c9.915-8.389,21.535-14.397,33.932-17.683v830.434Z"
     id="path3" />
</svg>
