<svg id="Layer_1" xmlns="http://www.w3.org/2000/svg" viewBox="0 0 1000 1000" fill="#ffffff"><path d="M691.942,608.53c-9.816,7.416-11.761,21.388-4.343,31.204,4.38,5.797,11.044,8.849,17.791,8.849,4.678,0,9.392-1.468,13.413-4.506,43.143-32.6,68.901-86.471,68.901-144.106s-25.758-111.506-68.901-144.106c-9.818-7.418-23.786-5.473-31.204,4.343-7.418,9.816-5.473,23.788,4.343,31.204,32.064,24.228,51.207,64.811,51.207,108.559s-19.143,84.331-51.207,108.559Z"/><path d="M880.629,223.855c-9.04-8.346-23.134-7.782-31.48,1.259-8.344,9.04-7.782,23.136,1.259,31.48,65.18,60.166,102.562,149.054,102.562,243.876s-37.22,183.309-102.116,243.464c-9.023,8.364-9.559,22.459-1.195,31.482,4.39,4.736,10.359,7.134,16.344,7.134,5.418,0,10.85-1.965,15.138-5.939,73.963-68.559,116.383-169.208,116.383-276.141s-42.607-208.041-116.895-276.615Z"/><path d="M339.414,229.051l149.602-126.586c9.915-8.389,21.535-14.397,33.932-17.683v355.163c0,12.303,9.974,22.277,22.277,22.277s22.277-9.974,22.277-22.277V59.599c0-12.303-9.974-22.277-22.277-22.277-31.08,0-61.262,11.055-84.988,31.132l-149.602,126.586c-9.392,7.946-10.564,22.003-2.616,31.395,7.948,9.39,22.005,10.566,31.395,2.616Z"/><path d="M80.542,123.919c-8.702-8.698-22.803-8.698-31.505,0-8.7,8.7-8.7,22.805,0,31.505l102.098,102.098H24.752c-12.303,0-22.277,9.974-22.277,22.277v440.401c0,12.303,9.974,22.277,22.277,22.277h212.04l223.445,189.068c23.726,20.077,53.908,31.132,84.988,31.132,12.303,0,22.277-9.974,22.277-22.277v-266.511l282.263,282.263c4.351,4.349,10.052,6.525,15.753,6.525s11.402-2.176,15.753-6.525c8.7-8.7,8.7-22.805,0-31.505L80.542,123.919ZM522.948,915.217c-12.398-3.286-24.018-9.294-33.932-17.683l-229.674-194.34c-4.022-3.403-9.12-5.272-14.389-5.272H47.03v-395.846h148.66l327.259,327.259v285.881Z"/></svg>