<?xml version="1.0" encoding="utf-8"?>
<!-- Generator: Adobe Illustrator 25.2.3, SVG Export Plug-In . SVG Version: 6.00 Build 0)  -->
<svg version="1.1" id="Layer_1" xmlns="http://www.w3.org/2000/svg" xmlns:xlink="http://www.w3.org/1999/xlink" x="0px" y="0px"
	 viewBox="0 0 833.08 595.28" style="enable-background:new 0 0 833.08 595.28;" xml:space="preserve">
<style type="text/css">
	.st0{fill:none;}
	.st1{fill:#FFFFFF;}
	.st2{fill-rule:evenodd;clip-rule:evenodd;fill:#FFFFFF;}
</style>
<path class="st0" d="M-0.02,0v595.28h833.09V0H-0.02z"/>
<g>
	<path class="st1" d="M619.37,259.54c-8.8-9.98-20.88-12.28-30.46-12.28c-21.85,0-28.92,12.07-31.4,16.48V213H539.5v115.69
		l-0.38,17.23h17.45l0.37-14.55c1.9,2.88,4.02,6.12,9.36,9.73c8.27,5.59,16.87,6.16,21.47,6.16c13.21,0,26.07-5.55,33.71-16.47
		c4.8-6.34,9.17-16.49,9.17-35.08C630.66,274.66,624.16,265.08,619.37,259.54z M583.96,334.25c-26.85,0-26.85-30.08-26.85-36.42
		c0-6.12,0-38.29,27.58-38.29c25.09,0,27.03,27.76,27.03,37.34C611.72,312.58,606.18,334.25,583.96,334.25z"/>
</g>
<g>
	<path class="st1" d="M694.46,248.23c-7.85,0-23.74,2.29-32.76,17.42l-0.37-15.9h-18.22c0.38,9.17,0.58,11.48,0.58,15.7v117.43
		h17.84v-47.7c5.15,8.43,15.49,14.38,29.5,14.38c22.98,0,43.87-15.71,43.87-51.54C734.9,262.39,715.15,248.23,694.46,248.23z
		 M708.27,326.95c-6.13,8.45-15.72,9.39-20.32,9.39c-25.3,0-27.02-23.96-27.02-35.63c0-8.63,0-39.06,28.74-39.06
		c21.27,0,26.44,17.97,26.44,35.23C716.12,303.78,715.15,317.57,708.27,326.95z"/>
</g>
<polygon class="st0" points="98.2,583.5 491.01,583.5 491.01,595.29 98.2,595.29 98.2,583.5 "/>
<g>
	<g>
		<g>
			<g>
				<g>
					<g>
						<g>
							<g>
								<path class="st2" d="M294.6,98.23c5.56,8.37,15.54,24.1,23.99,43.66c-9.54,10.47-17.55,21.28-23.99,32.2
									c-6.42-10.92-14.42-21.73-23.97-32.2C279.08,122.33,289.09,106.59,294.6,98.23z"/>
							</g>
							<g>
								<path class="st2" d="M294.6,421.25c6.44,10.91,14.45,21.71,24,32.2c-8.45,19.58-18.45,35.32-24,43.67
									c-5.52-8.37-15.53-24.09-23.97-43.67C280.18,442.96,288.2,432.17,294.6,421.25z"/>
							</g>
							<g>
								<path class="st2" d="M226.41,110.26c8.06,5.97,22.85,17.33,37.48,32.84c-5.4,13.1-9.24,25.99-11.53,38.46
									c-9.77-8.06-20.99-15.49-33.55-22.05C220.04,138.21,224.06,120.01,226.41,110.26z"/>
							</g>
							<g>
								<path class="st2" d="M336.88,413.81c9.76,8.06,20.99,15.46,33.54,22.04c-1.22,21.28-5.25,39.47-7.59,49.25
									c-8.06-5.99-22.83-17.35-37.49-32.85C330.75,439.14,334.58,426.25,336.88,413.81z"/>
							</g>
							<g>
								<path class="st2" d="M166.42,144.89c9.61,2.85,27.39,8.46,46.44,18.05c-0.12,3.08-0.23,6.17-0.23,9.2
									c0,10.81,0.88,21.11,2.51,30.86c-11.93-4.23-24.99-7.36-39.02-9.23C170,173.35,167.56,154.88,166.42,144.89z"/>
							</g>
							<g>
								<path class="st2" d="M376.61,423.25c0-10.82-0.89-21.11-2.51-30.89c11.92,4.23,25,7.36,39.02,9.22
									c6.12,20.43,8.57,38.89,9.7,48.86c-9.64-2.83-27.4-8.45-46.43-18.02C376.5,429.33,376.61,426.25,376.61,423.25z"/>
							</g>
							<g>
								<path class="st2" d="M171.72,199.03c4.28,13.47,9.61,25.79,15.85,36.79c-12.65,0.1-26.02,1.69-39.83,4.74
									c-12.75-17.1-21.36-33.63-25.83-42.62C131.91,197.34,150.52,196.54,171.72,199.03z"/>
							</g>
							<g>
								<path class="st2" d="M441.5,354.77c12.74,17.13,21.36,33.64,25.84,42.62c-10.01,0.61-28.63,1.4-49.82-1.07
									c-4.28-13.49-9.62-25.81-15.84-36.82C414.3,359.43,427.69,357.83,441.5,354.77z"/>
							</g>
							<g>
								<path class="st2" d="M145.39,247c8.65,11.24,17.89,21,27.52,29.22c-11.86,4.41-23.9,10.44-35.86,18.03
									c-17.82-11.72-31.56-24.28-38.83-31.21C107.41,259.04,124.64,251.92,145.39,247z"/>
							</g>
							<g>
								<path class="st2" d="M452.19,301.09c17.8,11.71,31.54,24.29,38.84,31.21c-9.2,4.01-26.43,11.12-47.19,16.03
									c-8.64-11.21-17.88-20.99-27.53-29.19C428.18,314.72,440.2,308.68,452.19,301.09z"/>
							</g>
							<g>
								<path class="st2" d="M137.05,301.09c11.97,7.59,24,13.62,35.86,18.05c-9.64,8.22-18.88,17.98-27.52,29.19
									c-20.75-4.91-37.98-12.03-47.17-16.03C105.49,325.39,119.24,312.82,137.05,301.09z"/>
							</g>
							<g>
								<path class="st2" d="M443.84,246.99c20.76,4.93,37.99,12.04,47.19,16.04c-7.3,6.92-21.04,19.49-38.84,31.21
									c-11.98-7.59-24.01-13.62-35.89-18.03C425.96,268,435.2,258.24,443.84,246.99z"/>
							</g>
							<g>
								<path class="st2" d="M147.74,354.77c13.8,3.05,27.17,4.66,39.83,4.73c-6.24,11.01-11.57,23.33-15.85,36.81
									c-21.2,2.48-39.82,1.69-49.81,1.08C126.38,388.4,134.99,371.9,147.74,354.77z"/>
							</g>
							<g>
								<path class="st2" d="M467.34,197.95c-4.48,8.99-13.1,25.51-25.84,42.62c-13.82-3.04-27.21-4.63-39.83-4.74
									c6.22-11.01,11.57-23.33,15.84-36.81C438.71,196.54,457.33,197.34,467.34,197.95z"/>
							</g>
							<g>
								<path class="st2" d="M215.14,392.35c-1.63,9.78-2.51,20.07-2.51,30.89c0,3,0.11,6.08,0.23,9.18
									c-19.07,9.56-36.81,15.19-46.44,18.02c1.14-9.97,3.58-28.43,9.7-48.86C190.13,399.72,203.2,396.58,215.14,392.35z"/>
							</g>
							<g>
								<path class="st2" d="M422.81,144.89c-1.13,9.98-3.58,28.45-9.7,48.87c-14,1.86-27.1,4.99-39.02,9.23
									c1.62-9.77,2.51-20.06,2.51-30.88c0-3.02-0.1-6.09-0.24-9.17C395.42,153.35,413.17,147.75,422.81,144.89z"/>
							</g>
							<g>
								<path class="st2" d="M252.35,413.81c2.3,12.44,6.14,25.35,11.54,38.45c-14.63,15.5-29.41,26.86-37.48,32.84
									c-2.35-9.79-6.37-27.96-7.61-49.24C231.35,429.27,242.58,421.87,252.35,413.81z"/>
							</g>
							<g>
								<path class="st2" d="M362.83,110.24c2.33,9.75,6.37,27.97,7.59,49.26c-12.55,6.56-23.78,13.99-33.54,22.05
									c-2.3-12.46-6.15-25.36-11.54-38.46C340,127.58,354.77,116.23,362.83,110.24z"/>
							</g>
						</g>
						<g>
							<g>
								<path class="st2" d="M268.2,147.91c9.28,10.42,17.07,21.15,23.13,31.97c-5.44,10.21-9.45,20.61-12.02,30.98
									c-5.97-8.86-13.29-17.26-21.89-24.99C259.41,173.61,263.05,160.88,268.2,147.91z"/>
							</g>
							<g>
								<path class="st2" d="M309.92,384.5c5.98,8.87,13.29,17.26,21.91,24.98c-2,12.25-5.67,24.98-10.8,37.97
									c-9.28-10.46-17.08-21.17-23.13-31.99C303.34,405.26,307.35,394.88,309.92,384.5z"/>
							</g>
							<g>
								<path class="st2" d="M218.4,172.13c0-2.03,0.1-4.11,0.17-6.18c12.29,6.64,23.28,14.06,32.67,22.15
									c-0.95,6.74-1.48,13.4-1.48,19.9c0,4.53,0.32,8.94,0.78,13.31c-8.65-6.29-18.4-11.67-29.13-16.01
									C219.42,194.94,218.4,183.82,218.4,172.13z"/>
							</g>
							<g>
								<path class="st2" d="M339.48,387.34c0-4.53-0.32-8.92-0.78-13.33c8.65,6.33,18.41,11.69,29.14,16.04
									c1.97,10.38,2.98,21.48,2.98,33.21c0,2.01-0.09,4.09-0.13,6.13c-12.31-6.61-23.29-14.03-32.71-22.14
									C338.95,400.49,339.48,393.84,339.48,387.34z"/>
							</g>
							<g>
								<path class="st2" d="M178.11,199.92c13.82,2.04,26.67,5.24,38.27,9.61c2.39,11.34,6.01,21.87,10.71,31.49
									c-10.28-2.98-21.28-4.7-32.85-5.11C187.9,225.27,182.51,213.16,178.11,199.92z"/>
							</g>
							<g>
								<path class="st2" d="M362.13,354.33c10.28,2.97,21.26,4.69,32.85,5.1c6.36,10.64,11.73,22.75,16.15,36
									c-13.82-2.02-26.68-5.24-38.28-9.64C370.47,374.47,366.84,363.94,362.13,354.33z"/>
							</g>
							<g>
								<path class="st2" d="M190.93,241.59c6.13,9.83,13.13,18.49,20.85,25.94c-10.67,0.72-21.59,2.86-32.6,6.44
									c-9.6-7.83-18.81-17.37-27.49-28.33C165.37,242.84,178.56,241.43,190.93,241.59z"/>
							</g>
							<g>
								<path class="st2" d="M410.06,321.36c9.61,7.84,18.8,17.39,27.49,28.35c-13.67,2.8-26.87,4.22-39.24,4.06
									c-6.15-9.84-13.15-18.51-20.84-25.96C388.13,327.08,399.06,324.95,410.06,321.36z"/>
							</g>
							<g>
								<path class="st2" d="M178.04,280.46c9.11,7.13,18.63,12.88,28.42,17.24c-9.78,4.31-19.31,10.06-28.42,17.19
									c-11.71-4.07-23.64-9.89-35.5-17.19C154.4,290.34,166.33,284.53,178.04,280.46z"/>
							</g>
							<g>
								<path class="st2" d="M411.19,280.46c11.73,4.08,23.63,9.89,35.51,17.22c-11.88,7.32-23.81,13.14-35.51,17.22
									c-9.11-7.13-18.65-12.89-28.43-17.19C392.55,293.34,402.08,287.59,411.19,280.46z"/>
							</g>
							<g>
								<path class="st2" d="M179.18,321.36c11,3.59,21.93,5.73,32.6,6.45c-7.71,7.46-14.72,16.12-20.85,25.96
									c-12.38,0.16-25.57-1.25-39.24-4.06C160.37,338.74,169.58,329.19,179.18,321.36z"/>
							</g>
							<g>
								<path class="st2" d="M437.55,245.65c-8.69,10.96-17.88,20.48-27.49,28.33c-11-3.58-21.93-5.72-32.59-6.44
									c7.69-7.45,14.69-16.11,20.84-25.94C410.68,241.43,423.88,242.84,437.55,245.65z"/>
							</g>
							<g>
								<path class="st2" d="M227.09,354.33c-4.71,9.61-8.32,20.14-10.71,31.46c-11.61,4.41-24.46,7.62-38.27,9.64
									c4.4-13.25,9.78-25.36,16.13-36C205.81,359.02,216.81,357.3,227.09,354.33z"/>
							</g>
							<g>
								<path class="st2" d="M411.13,199.91c-4.41,13.25-9.78,25.36-16.15,36c-11.59,0.41-22.57,2.13-32.85,5.11
									c4.71-9.62,8.34-20.15,10.71-31.49C384.46,205.13,397.32,201.94,411.13,199.91z"/>
							</g>
							<g>
								<path class="st2" d="M279.31,384.5c2.57,10.38,6.58,20.76,12.02,30.96c-6.06,10.82-13.85,21.56-23.13,31.99
									c-5.16-12.97-8.79-25.7-10.78-37.97C266.02,401.75,273.34,393.37,279.31,384.5z"/>
							</g>
							<g>
								<path class="st2" d="M250.53,374.01c-0.46,4.41-0.78,8.82-0.78,13.34c0,6.49,0.53,13.15,1.48,19.9
									c-9.4,8.1-20.38,15.52-32.67,22.14c-0.06-2.05-0.17-4.12-0.17-6.15c0-11.7,1.03-22.81,3.01-33.18
									C232.13,385.7,241.89,380.33,250.53,374.01z"/>
							</g>
							<g>
								<path class="st2" d="M321.02,147.9c5.14,12.98,8.81,25.71,10.81,37.95c-8.62,7.75-15.93,16.15-21.91,25.01
									c-2.57-10.36-6.58-20.76-12.02-30.98C303.95,169.06,311.75,158.33,321.02,147.9z"/>
							</g>
							<g>
								<path class="st2" d="M370.65,165.95c0.08,2.07,0.16,4.14,0.16,6.16c0,11.71-1.01,22.83-2.98,33.2
									c-10.72,4.33-20.48,9.72-29.14,16.03c0.45-4.39,0.78-8.79,0.78-13.33c0-6.49-0.53-13.16-1.5-19.92
									C347.39,180.01,358.37,172.59,370.65,165.95z"/>
							</g>
						</g>
						<g>
							<g>
								<path class="st2" d="M255.54,208.01c0-4.93,0.39-10,0.97-15.08c8.43,8.03,15.54,16.69,21.07,25.87
									c-1.16,6.54-1.78,13.12-1.78,19.73c0,2.85,0.19,5.72,0.41,8.57c-5.53-7.7-11.96-14.68-19.24-20.79
									C256.04,220.36,255.54,214.27,255.54,208.01z"/>
							</g>
							<g>
								<path class="st2" d="M313.44,356.83c0-2.87-0.2-5.71-0.42-8.58c5.54,7.69,11.94,14.68,19.24,20.81
									c0.94,5.9,1.44,11.99,1.44,18.27c0,4.95-0.39,9.99-0.97,15.09c-8.44-8.03-15.55-16.69-21.09-25.87
									C312.81,370.02,313.44,363.42,313.44,356.83z"/>
							</g>
							<g>
								<path class="st2" d="M222.96,212.29c10.67,4.65,20.31,10.34,28.67,17.08c1.66,9.37,4.48,18.43,8.39,27.09
									c-7.84-5.36-16.25-9.73-25.2-12.97C229.64,234.1,225.69,223.6,222.96,212.29z"/>
							</g>
							<g>
								<path class="st2" d="M329.2,338.89c7.85,5.35,16.26,9.74,25.22,12.98c5.18,9.39,9.12,19.87,11.86,31.2
									c-10.68-4.65-20.34-10.36-28.66-17.09C335.95,356.6,333.13,347.55,329.2,338.89z"/>
							</g>
							<g>
								<path class="st2" d="M198.07,241.95c11.65,0.73,22.65,2.78,32.78,6.25c4.77,8.25,10.52,15.8,17.15,22.59
									c-9.21-2.36-18.62-3.64-28.18-3.64C211.78,260.12,204.51,251.62,198.07,241.95z"/>
							</g>
							<g>
								<path class="st2" d="M341.21,324.57c9.2,2.35,18.62,3.63,28.2,3.63c8.05,7.03,15.3,15.5,21.74,25.22
									c-11.62-0.72-22.64-2.79-32.78-6.27C353.61,338.89,347.86,331.37,341.21,324.57z"/>
							</g>
							<g>
								<path class="st2" d="M217.78,272.98c7.28,6.1,15.24,11.22,23.77,15.32c-9.42,0.95-18.64,3.04-27.59,6.3
									c-9.99-3.86-19.76-9.36-29.13-16.29C196.01,275.02,207.08,273.19,217.78,272.98z"/>
							</g>
							<g>
								<path class="st2" d="M375.25,300.74c10.01,3.87,19.76,9.36,29.13,16.3c-11.18,3.29-22.22,5.13-32.93,5.32
									c-7.29-6.11-15.25-11.2-23.8-15.32C357.11,306.1,366.34,304.01,375.25,300.74z"/>
							</g>
							<g>
								<path class="st2" d="M213.96,300.74c8.94,3.27,18.17,5.36,27.61,6.32c-8.54,4.1-16.51,9.2-23.79,15.3
									c-10.73-0.19-21.77-2.03-32.95-5.32C194.2,310.11,203.97,304.61,213.96,300.74z"/>
							</g>
							<g>
								<path class="st2" d="M371.45,272.98c10.71,0.21,21.75,2.04,32.93,5.33c-9.36,6.93-19.12,12.43-29.13,16.29
									c-8.92-3.26-18.14-5.35-27.6-6.3C356.2,284.2,364.18,279.08,371.45,272.98z"/>
							</g>
							<g>
								<path class="st2" d="M248.03,324.58c-6.65,6.78-12.4,14.31-17.17,22.56c-10.14,3.48-21.13,5.54-32.78,6.27
									c6.43-9.69,13.7-18.19,21.75-25.22C229.39,328.2,238.8,326.93,248.03,324.58z"/>
							</g>
							<g>
								<path class="st2" d="M391.16,241.95c-6.43,9.67-13.69,18.17-21.74,25.2c-9.59,0-19,1.28-28.2,3.64
									c6.65-6.79,12.38-14.33,17.16-22.59C368.52,244.73,379.53,242.67,391.16,241.95z"/>
							</g>
							<g>
								<path class="st2" d="M294.6,351.5c2.58,9.13,6.23,17.89,10.98,26.14c-2.05,10.52-5.79,21.08-10.98,31.52
									c-5.17-10.44-8.9-21-10.97-31.52C288.4,369.38,292.05,360.62,294.6,351.5z"/>
							</g>
							<g>
								<path class="st2" d="M276.21,348.25c-0.22,2.87-0.41,5.7-0.41,8.58c0,6.61,0.62,13.19,1.78,19.72
									c-5.53,9.18-12.64,17.82-21.07,25.87c-0.6-5.1-0.97-10.14-0.97-15.08c0-6.27,0.5-12.36,1.43-18.28
									C264.25,362.94,270.68,355.94,276.21,348.25z"/>
							</g>
							<g>
								<path class="st2" d="M260.02,338.89c-3.91,8.66-6.73,17.71-8.39,27.08c-8.34,6.73-17.99,12.44-28.67,17.09
									c2.73-11.33,6.68-21.83,11.86-31.2C243.76,348.63,252.18,344.24,260.02,338.89z"/>
							</g>
							<g>
								<path class="st2" d="M294.6,186.21c5.19,10.42,8.93,20.99,10.99,31.52c-4.75,8.24-8.41,16.99-10.99,26.13
									c-2.56-9.14-6.21-17.89-10.97-26.13C285.7,207.2,289.43,196.63,294.6,186.21z"/>
							</g>
							<g>
								<path class="st2" d="M332.73,192.92c0.58,5.09,0.97,10.15,0.97,15.08c0,6.27-0.5,12.37-1.43,18.28
									c-7.29,6.13-13.71,13.1-19.25,20.79c0.22-2.85,0.42-5.71,0.42-8.57c0-6.61-0.63-13.19-1.8-19.73
									C317.19,209.62,324.29,200.95,332.73,192.92z"/>
							</g>
							<g>
								<path class="st2" d="M366.28,212.29c-2.74,11.31-6.67,21.81-11.86,31.2c-8.96,3.24-17.37,7.61-25.22,12.97
									c3.92-8.66,6.75-17.72,8.42-27.09C345.94,222.63,355.6,216.94,366.28,212.29z"/>
							</g>
						</g>
					</g>
				</g>
			</g>
		</g>
	</g>
</g>
</svg>
