<?xml version="1.0" encoding="UTF-8" standalone="no"?>
<!-- Created with Inkscape (http://www.inkscape.org/) -->

<svg
   version="1.1"
   id="svg1"
   width="1400"
   height="1400"
   viewBox="0 0 1400 1400"
   sodipodi:docname="camera-dark-grey.svg"
   inkscape:version="1.4.3 (0d15f75, 2025-12-25)"
   xmlns:inkscape="http://www.inkscape.org/namespaces/inkscape"
   xmlns:sodipodi="http://sodipodi.sourceforge.net/DTD/sodipodi-0.dtd"
   xmlns="http://www.w3.org/2000/svg"
   xmlns:svg="http://www.w3.org/2000/svg">
  <defs
     id="defs1" />
  <sodipodi:namedview
     id="namedview1"
     pagecolor="#505050"
     bordercolor="#eeeeee"
     borderopacity="1"
     inkscape:showpageshadow="0"
     inkscape:pageopacity="0"
     inkscape:pagecheckerboard="0"
     inkscape:deskcolor="#505050"
     showgrid="false"
     inkscape:zoom="0.83357143"
     inkscape:cx="699.40017"
     inkscape:cy="700"
     inkscape:window-width="3440"
     inkscape:window-height="1369"
     inkscape:window-x="2872"
     inkscape:window-y="-8"
     inkscape:window-maximized="1"
     inkscape:current-layer="g1" />
  <g
     inkscape:groupmode="layer"
     inkscape:label="Image"
     id="g1">
    <path
       style="fill:#333333;fill-opacity:1"
       d="m 166.5198,1058.1342 c -8.50166,-1.6911 -16.72189,-7.9445 -20.98357,-15.963 -1.80149,-3.3896 -1.86825,-14.1309 -2.11602,-340.47435 -0.23657,-311.59836 -0.13093,-337.35044 1.40277,-341.96799 2.2179,-6.67748 10.099,-14.60159 16.7897,-16.88134 4.56991,-1.55712 32.66533,-1.67629 395.204,-1.67629 387.21081,0 390.32621,0.0157 395.60431,1.99044 6.2967,2.35592 12.7616,8.54437 15.6799,15.00956 2.0087,4.45015 2.0315,5.98163 2.0532,138.25 0.012,73.5625 0.3602,133.75 0.7735,133.75 0.4134,0 54.75091,-54.02987 120.75011,-120.06638 73.9341,-73.976 121.5226,-120.85964 123.969,-122.13286 5.6444,-2.93763 14.9419,-3.48879 21.592,-1.27998 6.4966,2.15784 13.8399,8.7215 17.1057,15.2896 l 2.3317,4.68962 v 293 293 l -2.1057,4.55081 c -5.0285,10.86776 -14.1466,16.94916 -25.4125,16.94916 -14.3263,0 -3.0356,10.1887 -136.9914,-123.62138 -66.2803,-66.20822 -120.84291,-120.37859 -121.25011,-120.37859 -0.4072,0 -0.7403,59.76984 -0.7403,132.82186 0,147.23441 0.4244,137.81741 -6.5808,146.00141 -1.9097,2.2311 -6.0478,5.3211 -9.1957,6.8666 l -5.7235,2.8101 -389.00004,0.1449 c -213.95,0.08 -390.87031,-0.2272 -393.15625,-0.6819 z M 913.17609,699.67123 v -301.5 h -356.50004 -356.5 v 301.5 301.49997 h 356.5 356.50004 z m 286.00001,0.25058 V 483.67238 L 1090.9273,591.92123 982.67839,700.17007 1090.6755,808.17065 c 59.3984,59.40032 108.1104,108.00058 108.2489,108.00058 0.1384,0 0.2517,-97.31224 0.2517,-216.24942 z"
       id="path1" />
  </g>
</svg>
