<?xml version="1.0" encoding="UTF-8"?>
<svg version="1.1" xmlns="http://www.w3.org/2000/svg" width="200" height="200">
<path d="M0 0 C19.1957476 0 34.56715655 5.56393892 48.2734375 19.109375 C60.88016832 32.47467702 67.6183073 48.29146433 67.5 66.6875 C67.49427979 67.73260742 67.48855957 68.77771484 67.48266602 69.85449219 C67.07695112 87.60759263 60.06904731 102.52414934 47.79296875 115.39453125 C34.15759969 128.11451889 18.48960694 134 0 134 C0 89.78 0 45.56 0 0 Z " fill="#000000" transform="translate(99,34)"/>
<path d="M0 0 C18.98114011 15.91225575 30.17994192 38.14082868 32.54541016 62.81762695 C34.22118362 87.89542989 25.8184074 111.95979165 9.31176758 130.83569336 C-7.02627327 148.72117538 -29.75369401 158.43433145 -53.78662109 160.0402832 C-78.63260943 160.69337775 -101.89855424 151.72410503 -120.19677734 135.0090332 C-137.87659619 118.10935832 -147.12917607 94.33608566 -147.76708984 70.06762695 C-147.31702246 44.75133683 -137.36448846 21.64524425 -119.45458984 3.81762695 C-86.67314571 -26.91046264 -34.72907576 -27.87206982 0 0 Z M-118.25537109 17.09106445 C-132.72809402 33.45153385 -138.37817734 54.14624423 -137.58642578 75.67993164 C-136.3072232 96.42196467 -126.60107256 115.78444998 -111.28662109 129.80200195 C-92.94463393 145.24158658 -72.2184291 151.13784024 -48.45458984 149.81762695 C-32.6287613 148.109691 -18.70416607 141.8582632 -6.45458984 131.81762695 C-5.39884766 131.00551758 -5.39884766 131.00551758 -4.32177734 130.17700195 C10.82784915 117.93848016 20.37445753 97.96706755 22.54541016 78.81762695 C24.03971246 54.81795992 17.63629991 34.27225597 2.17041016 15.56762695 C-12.21651898 -0.08017911 -32.14598788 -9.42906345 -53.31396484 -10.3503418 C-79.15732229 -10.48007753 -100.57297562 -1.87412216 -118.25537109 17.09106445 Z " fill="#000000" transform="translate(157.45458984375,30.182373046875)"/>
</svg>
