<?xml version="1.0" encoding="UTF-8"?>
<svg version="1.1" xmlns="http://www.w3.org/2000/svg" width="47" height="47">
<path d="M0 0 C5.29544997 1.91686536 7.43100929 4.38501548 10.3125 9.1875 C11.71178698 14.91185583 10.90365795 20.22495759 8.25 25.4375 C3.89021547 30.40281016 -0.04029745 31.57074965 -6.484375 32.08203125 C-10.25075507 31.95921451 -12.71099337 30.7875036 -16 29 C-16 28.34 -16 27.68 -16 27 C-15.32453125 26.69707031 -14.6490625 26.39414062 -13.953125 26.08203125 C-7.65541112 23.12428991 -3.81627767 20.81418311 -0.75 14.375 C0.31679395 9.57442723 0.15682892 4.89654728 0 0 Z " fill="#BEBEBE" transform="translate(30,8)"/>
<path d="M0 0 C4.93041855 3.77251723 8.00679832 8.86519581 9.234375 14.93359375 C10.02869082 21.74387526 8.74184051 27.05343098 5.234375 32.93359375 C0.83841557 38.28003089 -4.34799884 41.79389349 -11.203125 42.80859375 C-18.44439152 43.31351199 -24.07165537 41.48876945 -29.765625 36.93359375 C-35.13056222 31.53893389 -37.06115782 26.69546021 -37.203125 19.12109375 C-37.07489921 11.45158842 -35.26572102 7.64153395 -30.12109375 2.19140625 C-21.57868889 -5.86892159 -9.83970837 -5.9430097 0 0 Z M-29.55078125 5.09765625 C-33.8456773 11.33185525 -35.6271042 16.35257679 -34.765625 23.93359375 C-32.60425174 31.12081086 -27.75847415 35.55946723 -21.453125 39.30859375 C-14.84493045 40.84538318 -8.5493507 40.76890863 -2.5859375 37.31640625 C3.11925148 32.98242149 6.12738997 27.49613742 7.17578125 20.44921875 C7.33456509 13.63209923 4.4428546 8.22657965 -0.18359375 3.375 C-5.25446648 -1.24512849 -10.16779459 -1.61565574 -16.796875 -1.40234375 C-22.3248063 -0.77681468 -25.97779947 0.76629541 -29.55078125 5.09765625 Z " fill="#BEBEBE" transform="translate(37.765625,4.06640625)"/>
</svg>
